<svg width="122" height="107" viewBox="0 0 122 107" fill="none" xmlns="http://www.w3.org/2000/svg">
<path d="M74.8283 0.162738C96.3049 12.816 118.994 22.6575 142.943 29.4447C146.724 30.5112 147.209 31.1899 147.209 35.1168C147.209 48.061 147.403 61.0051 147.063 73.9493C146.385 101.05 136.931 124.659 118.412 144.536C109.152 154.475 98.535 162.619 86.2695 168.485C83.3123 169.891 80.1611 171.006 77.0098 171.927C73.2284 173.091 69.5924 171.879 66.0534 170.521C55.9211 166.595 46.9523 160.68 38.7107 153.699C25.815 142.791 15.7796 129.653 9.08938 114.042C4.4353 103.183 1.2841 91.8869 0.847776 80.1063C0.314496 64.6411 0.459936 49.176 0.362976 33.7109C0.362976 31.4323 1.23562 30.4143 3.65962 29.6871C14.4222 26.6328 25.0393 23.0453 35.414 18.8275C47.3401 13.9311 58.8783 8.21042 70.0287 1.7141C70.9499 1.18082 71.871 0.647538 72.7436 0.114258C73.5193 0.162738 74.1495 0.162738 74.8283 0.162738ZM140.325 58.0479C140.228 58.0479 140.179 58.0479 140.082 58.0479C140.082 51.3091 140.034 44.5704 140.131 37.8802C140.131 36.6197 139.84 36.0379 138.579 35.6501C116.327 29.2023 95.2383 20.185 75.1676 8.69522C74.2465 8.16194 73.5193 8.06498 72.5497 8.64674C52.479 20.2335 31.3417 29.2507 9.08938 35.6986C7.87738 36.0379 7.5865 36.5712 7.5865 37.7832C7.63498 48.4973 7.5865 59.2114 7.63498 69.9255C7.68346 82.3363 9.5257 94.4563 13.8404 106.188C19.0278 120.248 27.027 132.513 37.6926 142.936C46.5644 151.614 56.5513 158.741 68.0895 163.637C71.6771 165.14 75.1676 165.673 78.8036 163.977C80.355 163.249 82.0033 162.668 83.5547 161.892C102.51 152.341 117.297 138.379 127.671 119.86C134.459 107.788 138.434 94.7957 139.501 80.9789C139.985 73.3191 140.034 65.6592 140.325 58.0479Z" fill="white"/>
<path d="M14.9869 51.314C14.9869 49.2778 14.9869 47.2901 14.9869 45.254C15.0354 42.6845 15.7626 41.618 18.1866 40.7938C24.3436 38.6122 30.549 36.4791 36.6575 34.2005C40.3905 32.7946 42.5721 35.6549 42.1357 37.982C41.7964 39.7757 40.5359 40.5514 38.9845 41.1332C33.9426 42.9269 28.9007 44.8177 23.8103 46.5145C22.5983 46.9023 22.162 47.4841 22.2105 48.7445C22.3074 51.7988 22.2589 54.9015 22.2105 58.0042C22.2105 59.6041 21.6287 60.9615 20.0773 61.6887C18.7199 62.3189 17.2655 62.222 16.3444 61.1069C15.6172 60.1858 15.0839 58.8769 14.9869 57.6649C14.793 55.5802 14.9869 53.4471 14.9869 51.314Z" fill="white"/>
<path d="M56.3501 32.671C56.3986 34.7071 54.6048 36.5494 52.4232 36.6463C50.3871 36.7433 48.4963 34.8526 48.4963 32.7195C48.4963 30.7318 50.2901 28.938 52.3263 28.8411C54.3624 28.7441 56.3016 30.5863 56.3501 32.671Z" fill="white"/>
<path d="M58.4521 74.5965C58.4521 72.6088 58.3067 70.5242 58.4521 68.4395C58.9854 61.2645 64.4636 55.253 71.3478 54.1864C78.7652 53.0714 85.8433 56.8043 88.4612 63.64C89.3824 66.1125 89.4308 68.9243 89.7702 71.6392C89.9156 72.6573 89.7702 73.6754 89.7702 74.7419C90.8368 74.8874 91.6609 74.9359 92.4851 75.1298C95.4908 75.76 98.0118 78.3779 98.0603 81.6746C98.2057 90.4495 98.2057 99.2728 98.0603 108.048C98.0118 111.732 95.1515 114.35 91.4185 114.641C88.7036 114.835 85.9888 114.738 83.2739 114.738C75.0808 114.738 66.9361 114.738 58.743 114.738C52.683 114.738 49.9681 111.975 49.9681 105.866C49.9681 98.9335 49.9681 92.0493 49.9681 85.1167C49.9681 77.7962 51.0832 76.3418 58.4521 74.5965ZM74.0142 108.484C79.2016 108.484 84.3404 108.436 89.5278 108.484C91.1761 108.484 91.9033 107.999 91.9033 106.205C91.8548 98.5941 91.8548 90.9827 91.9033 83.3714C91.9033 81.7231 91.37 81.1898 89.7217 81.1898C79.2985 81.2383 68.9238 81.2383 58.5006 81.1898C56.7068 81.1898 56.222 81.8685 56.222 83.5168C56.2705 91.0797 56.2705 98.5941 56.222 106.157C56.222 107.854 56.8038 108.532 58.5006 108.484C63.6879 108.436 68.8753 108.484 74.0142 108.484ZM83.4193 74.8389C83.4193 72.7058 83.5648 70.6696 83.3708 68.6819C82.983 64.1248 79.3955 60.6827 74.8868 60.3434C70.3297 59.9555 66.0635 62.7189 65.0939 67.0821C64.5606 69.5546 64.706 72.1725 64.5121 74.8389C71.0084 74.8389 77.1169 74.8389 83.4193 74.8389Z" fill="white"/>
<path d="M74.1504 82.1671C78.3196 82.2156 82.0041 85.0274 83.1676 89.0028C84.3312 93.0751 82.6344 97.5353 78.8529 99.6199C77.544 100.347 77.0592 101.171 77.2046 102.577C77.2046 102.723 77.2046 102.868 77.2046 103.014C77.1561 105.874 76.0896 107.328 74.1019 107.328C72.0657 107.328 70.8537 105.874 70.9507 103.062C70.9992 101.365 70.5144 100.347 68.963 99.426C65.327 97.2929 63.8241 92.8327 65.0361 88.8574C66.2481 84.882 69.9811 82.1671 74.1504 82.1671ZM74.1019 88.4695C72.4536 88.4695 71.0476 89.7785 70.9992 91.4753C70.9507 93.269 72.3081 94.7234 74.0534 94.7234C75.7017 94.7234 77.1076 93.4145 77.1561 91.7177C77.2046 89.9724 75.8472 88.518 74.1019 88.4695Z" fill="white"/>
</svg>
