<svg width="28" height="29" viewBox="0 0 28 29" fill="none" xmlns="http://www.w3.org/2000/svg">
<path d="M0.0884284 17.9409C0.0884284 15.8518 0.0884284 13.8124 0.0884284 11.7233C0.138169 9.08702 0.884284 7.99272 3.37133 7.14713C9.68844 4.90878 16.0553 2.72017 22.3227 0.382346C26.1527 -1.06014 28.3911 1.87458 27.9434 4.26215C27.5952 6.10256 26.3019 6.89842 24.7102 7.49531C19.5372 9.33573 14.3641 11.2756 9.14129 13.0166C7.89776 13.4145 7.4501 14.0114 7.49984 15.3046C7.59932 18.4383 7.54958 21.6218 7.49984 24.8052C7.49984 26.4466 6.90295 27.8394 5.31123 28.5855C3.91849 29.2321 2.42626 29.1326 1.48118 27.9886C0.735061 27.0435 0.18791 25.7005 0.0884284 24.457C-0.110536 22.3181 0.0884284 20.1295 0.0884284 17.9409Z" fill="white"/>
</svg>
