<svg width="48" height="48" viewBox="0 0 48 48" fill="none" xmlns="http://www.w3.org/2000/svg">
<path d="M41.25 31.7043L24 41.7636L6.75001 31.7043C6.40847 31.5342 6.01496 31.5007 5.64958 31.6106C5.2842 31.7204 4.97442 31.9654 4.78327 32.2956C4.59213 32.6258 4.534 33.0164 4.62071 33.3879C4.70742 33.7595 4.93245 34.084 5.25001 34.2955L23.25 44.7955C23.4794 44.9293 23.7401 44.9997 24.0056 44.9997C24.2711 44.9997 24.5319 44.9293 24.7613 44.7955L42.7613 34.2955C42.9341 34.1977 43.0859 34.0665 43.2077 33.9096C43.3294 33.7527 43.4188 33.5731 43.4707 33.3814C43.5225 33.1896 43.5357 32.9895 43.5096 32.7926C43.4834 32.5956 43.4184 32.4059 43.3184 32.2343C43.2183 32.0627 43.0851 31.9127 42.9266 31.793C42.7681 31.6733 42.5874 31.5863 42.395 31.5369C42.2026 31.4876 42.0023 31.477 41.8057 31.5058C41.6092 31.5345 41.4203 31.602 41.25 31.7043Z" fill="#002B4F"/>
<path d="M41.25 22.7043L24 32.7636L6.75001 22.7043C6.40847 22.5342 6.01496 22.5007 5.64958 22.6106C5.2842 22.7204 4.97442 22.9654 4.78327 23.2956C4.59213 23.6258 4.534 24.0164 4.62071 24.3879C4.70742 24.7595 4.93245 25.084 5.25001 25.2955L23.25 35.7955C23.4794 35.9293 23.7401 35.9997 24.0056 35.9997C24.2711 35.9997 24.5319 35.9293 24.7613 35.7955L42.7613 25.2955C42.9341 25.1977 43.0859 25.0665 43.2077 24.9096C43.3294 24.7527 43.4188 24.5731 43.4707 24.3814C43.5225 24.1896 43.5357 23.9895 43.5096 23.7926C43.4834 23.5956 43.4184 23.4059 43.3184 23.2343C43.2183 23.0627 43.0851 22.9127 42.9266 22.793C42.7681 22.6733 42.5874 22.5862 42.395 22.5369C42.2026 22.4876 42.0023 22.477 41.8057 22.5058C41.6092 22.5345 41.4203 22.602 41.25 22.7043Z" fill="#002B4F"/>
<path d="M5.25001 16.2957L23.25 26.7957C23.4794 26.9295 23.7401 26.9999 24.0056 26.9999C24.2711 26.9999 24.5319 26.9295 24.7613 26.7957L42.7613 16.2957C42.9877 16.1636 43.1755 15.9745 43.3061 15.7471C43.4367 15.5198 43.5054 15.2622 43.5054 15.0001C43.5054 14.7379 43.4367 14.4804 43.3061 14.253C43.1755 14.0257 42.9877 13.8366 42.7613 13.7045L24.7613 3.20447C24.5319 3.07072 24.2711 3.00024 24.0056 3.00024C23.7401 3.00024 23.4794 3.07072 23.25 3.20447L5.25001 13.7045C5.02358 13.8366 4.83572 14.0257 4.70516 14.253C4.57459 14.4804 4.50589 14.7379 4.50589 15.0001C4.50589 15.2622 4.57459 15.5198 4.70516 15.7471C4.83572 15.9745 5.02358 16.1636 5.25001 16.2957Z" fill="#002B4F"/>
</svg>
