<svg width="245" height="200" viewBox="0 0 245 200" fill="none" xmlns="http://www.w3.org/2000/svg">
<path d="M212.701 107.558C212.592 107.465 212.48 107.366 212.372 107.273C213.871 89.7227 210.322 73.104 201.571 57.5571C200.979 56.5041 200.979 55.8302 201.651 54.7818C203.968 51.1549 203.996 47.3453 201.759 43.6856C199.498 39.9884 195.987 37.6343 191.739 38.6873C188.204 39.5672 186.31 38.2006 184.308 36.015C184.031 35.7155 183.73 35.4207 183.391 35.196C182.423 34.5502 182.32 33.7967 182.597 32.6548C183.678 28.1948 181.775 23.7722 177.869 21.2824C174.034 18.8394 169.498 18.9471 165.865 21.741C164.897 22.4898 164.22 22.415 163.214 21.9282C153.922 17.4448 144.09 14.8755 133.816 14.0471C117.967 12.7695 102.838 15.4839 88.536 22.4992C87.737 22.8923 87.2482 22.8596 86.5385 22.2652C82.5717 18.9284 77.6649 18.6569 73.543 21.4509C69.4775 24.2074 67.8654 28.85 69.4399 33.6282C69.7736 34.6344 69.5715 35.1586 68.843 35.8606C68.1991 36.4784 67.5552 37.1008 66.9207 37.7279C63.2171 37.0025 59.6169 36.3988 56.1342 35.9261C30.8341 32.4816 14.9716 36.0665 10.2528 46.2923C5.53399 56.5135 13.1339 70.8342 32.23 87.701V91.2344C33.4567 95.0486 35.6986 97.9081 39.6372 99.2746C39.9709 99.3916 40.2059 100.183 40.2388 100.679C40.4127 103.065 40.3986 105.476 40.6383 107.853C42.852 129.943 52.1298 148.583 68.3918 163.756C69.2519 164.556 69.4305 165.202 69.1532 166.306C68.0816 170.551 69.7783 174.8 73.4396 177.36C77.0962 179.92 81.674 180.056 85.3212 177.548C86.3834 176.818 87.126 176.775 88.2775 177.356C97.9642 182.27 108.281 185.068 119.091 185.948C135.249 187.263 150.651 184.455 165.165 177.15C165.945 176.757 166.443 176.738 167.181 177.314C171.143 180.416 175.928 180.594 179.918 177.875C183.899 175.165 185.502 170.635 184.049 165.838C183.763 164.893 183.913 164.378 184.613 163.732C186.146 162.31 187.617 160.849 189.027 159.361C195.179 160.189 200.777 160.606 205.782 160.606C221.255 160.606 231.139 156.67 234.692 148.967C239.406 138.75 231.801 124.43 212.701 107.558ZM207.357 103.023C207.324 104.044 207.272 105.064 207.202 106.089C207.112 107.371 206.985 108.649 206.835 109.917C206.196 115.378 204.993 120.723 203.211 125.955C203.023 126.508 202.821 127.055 202.605 127.598C202.549 127.748 202.426 127.869 202.516 127.734C194.643 121.285 186.771 114.836 178.682 108.209C179.439 104.877 178.87 101.399 176.337 98.2965C176.074 97.9782 176.341 97.0001 176.642 96.49C177.817 94.4823 178.95 92.4558 180.045 90.4107C180.933 88.7493 181.784 87.0692 182.611 85.3844C184.956 80.6155 187.076 75.7389 188.933 70.7406C190.112 67.5676 191.283 64.3805 192.185 61.1232C192.782 58.9658 194.606 59.9954 195.785 59.415C196.02 59.298 196.904 60.0328 197.186 60.5429C204.588 73.8201 207.874 88.0098 207.357 103.023ZM192.791 43.7698C195.738 43.8026 198.065 46.2268 198.022 49.2173C197.98 52.1049 195.644 54.473 192.796 54.5104C189.68 54.5525 187.33 52.2406 187.325 49.1284C187.325 46.0115 189.647 43.7324 192.791 43.7698ZM172.295 24.8579C175.246 24.8766 177.653 27.3056 177.62 30.2352C177.582 33.3006 175.331 35.5704 172.295 35.5985C169.211 35.6266 166.861 33.2585 166.88 30.1463C166.904 27.212 169.329 24.8392 172.295 24.8579ZM91.2338 27.0856C103.722 20.9969 116.938 18.4276 130.803 19.1343C140.748 19.6397 150.285 21.8721 159.379 25.939C160.225 26.3181 161.057 26.7346 161.856 27.1184C161.565 30.1744 161.565 30.1697 158.777 31.0589C155.765 32.0183 155.671 31.9715 152.761 33.1602C150.134 35.051 152.292 38.9166 154.82 38.0181C157.979 36.7311 158.336 36.717 161.63 35.7342C162.11 35.5938 162.96 35.6921 163.233 36.0197C167.919 41.5234 173.042 42.3892 179.204 38.472C180.792 39.9556 182.324 41.383 183.922 42.8712C182.343 45.5435 181.619 48.286 182.287 51.3046C182.879 53.9909 184.228 56.1999 186.475 57.7724C187.321 58.362 187.41 58.8628 187.123 59.7941C184.689 67.6472 181.676 75.2381 178.099 82.5857C177.277 84.2752 176.426 85.9507 175.547 87.6121C174.405 89.7648 173.216 91.8989 171.975 94.0049C171.43 94.9362 170.824 94.8333 169.902 94.9503C166.927 95.3294 166.011 93.4995 164.906 91.3186C162.293 86.1566 159.346 81.2473 156.075 76.586C153.509 72.9309 150.745 69.4349 147.775 66.0887C144.541 62.443 141.077 58.9751 137.369 55.6991C136.42 54.8614 136.138 54.2062 136.528 52.9005C136.984 51.3795 137.016 49.6947 136.988 48.0848C136.974 47.116 137.016 46.517 137.975 45.9694C140.687 44.4297 140.377 44.2799 143.183 42.9508C146.797 41.3409 143.672 36.9464 141.294 38.0228C137.858 39.6374 137.548 40.1241 134.239 42.0663C129.976 38.3223 124.176 37.4612 118.719 42.0429C111.035 37.5454 102.956 33.8576 94.4345 31.1385C93.4287 30.8156 92.3665 30.6143 91.4359 30.151C90.8766 29.8702 90.1998 29.215 90.1622 28.6862C90.1293 28.1667 90.7074 27.3383 91.2338 27.0856ZM173.648 105.499C173.62 108.536 171.326 110.83 168.3 110.848C165.348 110.867 162.904 108.312 162.97 105.27C163.031 102.396 165.423 100.023 168.262 100.019C171.359 100.014 173.681 102.373 173.648 105.499ZM157.673 106.196H157.678C157.762 107.792 158.237 109.332 159.116 110.75C159.6 111.532 159.529 112.032 158.956 112.739C151.201 122.324 142.506 130.916 132.838 138.474C124.768 135.428 116.567 132.007 108.346 128.244C99.8348 124.35 91.6098 120.227 83.7937 115.963C84.0005 115.748 84.1838 115.495 84.3295 115.196C85.9792 109.318 88.1224 103.533 90.7591 97.8379C90.9659 97.4635 94.1337 91.7492 97.6211 85.8898C98.1851 85.9319 100.582 81.2285 100.465 81.2192C101.738 79.1834 102.956 77.3161 103.994 75.8793C107.627 71.0776 111.688 66.5848 116.083 62.3681C116.548 61.9235 117.06 61.521 117.488 61.039C118.043 60.4212 118.588 59.9064 119.166 59.5367C120.313 58.8113 121.605 58.685 123.401 59.6022C125.929 60.8939 128.815 60.3277 131.362 58.9798C131.55 58.8815 131.72 58.8113 131.884 58.7598C132.589 59.0641 133.289 59.3729 133.994 59.6818C137.961 63.2386 141.641 67.0107 145.044 70.998C151.408 78.458 156.789 86.6573 161.16 95.6102C161.405 96.1109 161.438 97.2107 161.174 97.3652C161.16 97.3745 161.146 97.3932 161.132 97.4166C160.69 97.9314 157.024 102.289 157.673 106.196ZM121.088 49.6011C121.051 46.6761 123.471 44.191 126.376 44.1629C129.482 44.1348 131.865 46.4889 131.846 49.5636C131.828 52.5635 129.52 54.8895 126.503 54.9503C123.65 55.0065 121.126 52.5167 121.088 49.6011ZM79.6154 24.8813C82.6422 24.9234 84.8747 27.2166 84.8841 30.2867C84.8888 33.2024 82.4307 35.664 79.5167 35.6594C76.6074 35.6547 74.1587 33.193 74.1634 30.2774C74.1681 27.1464 76.504 24.8345 79.6154 24.8813ZM34.5894 82.2534C18.9995 68.1479 12.0106 55.9472 15.3852 48.6323C17.9138 43.1474 26.3362 40.2785 39.2095 40.2785C44.0035 40.2785 49.4226 40.6763 55.3775 41.486C57.6147 41.7902 59.9083 42.1505 62.2442 42.5624C62.1126 42.7074 61.9716 42.8525 61.84 43.0023C61.3042 43.606 61.0504 44.9445 61.3465 45.6652C61.652 46.4093 62.7659 47.2049 63.5743 47.2611C64.3827 47.3172 65.4167 46.6527 66.0653 46.0209C66.8361 45.2721 67.5881 44.5046 68.3401 43.737C69.8864 42.1552 71.3998 40.55 72.9132 38.9775C73.1623 39.0336 73.4067 39.0898 73.6558 39.146C75.9212 40.4891 78.1302 40.9946 80.4144 40.7793C81.0019 40.7231 81.5941 40.6248 82.191 40.4751C85.3212 39.7029 87.5443 37.7139 89.1376 35.0229C98.3496 37.6718 106.946 41.3456 115.11 46.0349C115.871 46.4702 116.045 46.9054 116.012 47.8227C115.956 49.3343 115.993 50.9162 116.336 52.3857C116.383 52.5822 116.435 52.7835 116.492 52.9754C116.868 54.253 116.557 54.8427 115.678 55.6149C115.011 56.1999 114.353 56.7943 113.7 57.3933C108.793 61.8955 104.314 66.7954 100.262 72.0838L100.253 72.0791C100.253 72.0791 99.9053 72.5237 99.3131 73.3193C99.1251 73.5627 98.9418 73.7686 98.7491 73.9324C98.7773 73.9464 98.8008 73.9605 98.829 73.9745C97.701 75.5096 96.009 77.8917 94.1196 80.8167C93.6825 80.7933 92.7143 83.6106 91.1821 85.5669C89.5653 88.314 87.9344 91.3139 86.4915 94.4121L86.4962 94.4168C83.5634 100.594 81.1758 106.95 79.3334 113.483C69.1579 107.736 59.7391 101.755 51.359 95.7038C52.5293 94.2857 53.1168 92.5541 53.4176 90.5511C53.7701 88.1877 53.3283 84.9585 51.2133 82.4641C50.6305 81.7761 50.0101 80.9805 49.2299 80.5125C48.2053 79.8994 48.1771 79.2302 48.4685 78.2146C50.5318 70.9793 53.4928 64.1418 57.4126 57.7069C58.5124 55.9004 58.2962 54.4964 56.8721 53.5931C55.3681 52.6431 54.038 53.1204 52.863 55.0439C48.7552 61.7691 45.5733 68.9061 43.5288 76.5111C43.1763 77.8215 42.6405 78.3878 41.2352 78.575C38.3494 78.9681 36.1498 80.2317 34.5894 82.2534ZM37.5081 88.8756C37.5363 87.729 37.9499 86.6526 38.6173 85.7775C39.5996 84.4811 41.1365 83.62 42.8097 83.6153C45.8835 83.6106 48.2241 85.9975 48.1912 89.105C48.1771 90.4294 47.7447 91.5947 47.0162 92.4933C46.0245 93.7195 44.4782 94.4542 42.6687 94.4121C39.7594 94.3419 37.4376 91.8521 37.5081 88.8756ZM79.6248 174.056C76.6356 174.112 74.1493 171.646 74.154 168.628C74.1587 165.698 76.5886 163.236 79.4838 163.222C82.3461 163.208 84.8465 165.693 84.8841 168.59C84.9264 171.538 82.5529 174.005 79.6248 174.056ZM87.6101 161.762C86.1813 159.899 84.1697 158.837 81.8855 158.215C81.3732 158.074 80.6588 157.428 80.6165 156.965C79.8645 148.504 79.9726 140.197 80.9596 132.049C81.2087 128.721 76.8095 127.687 75.6674 131.627C74.6898 139.532 74.5159 147.479 75.2209 155.463C75.4277 157.807 75.2632 159.595 72.227 160.349C55.3023 143.697 46.7248 123.288 45.3524 99.649C45.7425 99.4525 46.1138 99.2793 46.471 99.1108C62.9492 111.209 83.4976 123.058 105.982 133.35C113.192 136.649 120.397 139.691 127.513 142.457C127.175 142.7 126.836 142.948 126.493 143.192C115.19 151.171 103.021 157.527 90.0682 162.422C88.9684 162.838 88.3668 162.745 87.6101 161.762ZM163.416 170.808C163.524 171.815 163.289 172.25 162.406 172.666C138.384 183.94 114.391 183.917 90.4066 172.563C90.1998 172.465 90.0118 172.325 89.7909 172.194C89.9225 171.033 89.9037 169.84 90.2374 168.759C90.4113 168.202 91.1398 167.64 91.7461 167.411C100.986 163.938 109.874 159.736 118.372 154.719C123.603 151.625 128.618 148.279 133.416 144.689C146.985 149.697 160.155 153.647 172.37 156.361C172.351 156.651 172.337 156.946 172.323 157.236C172.29 157.784 171.67 158.58 171.148 158.762C165.658 160.676 162.791 165.005 163.416 170.808ZM173.982 174.478C170.997 174.506 168.596 172.175 168.568 169.217C168.539 166.068 170.819 163.756 173.94 163.765C176.99 163.774 179.237 166.021 179.269 169.086C179.302 172.053 176.952 174.449 173.982 174.478ZM181.394 159.548C180.849 160.049 180.379 160.751 179.49 160.026C178.677 159.361 177.399 159.394 177.563 157.611C177.568 157.559 177.573 157.503 177.577 157.452L178.099 157.555V157.55C179.627 157.849 181.135 158.126 182.625 158.383C182.221 158.776 181.812 159.165 181.394 159.548ZM187.33 153.455C184.402 153.015 181.394 152.486 178.315 151.873L177.765 151.756L177.935 146.571C177.545 140.608 172.539 141.338 172.365 146.571C172.318 147.979 172.295 149.341 172.29 150.577L172.088 150.535C161.532 148.115 150.256 144.774 138.629 140.608C147.385 133.476 155.375 125.459 162.599 116.567C163.44 115.533 164.098 115.037 165.48 115.664C166.453 116.109 167.646 116.071 169.113 116.314C169.907 120.353 170.72 124.416 171.5 128.478C171.749 129.788 172.031 131.019 173.582 131.398C175.495 131.866 177.15 130.5 176.797 128.436C176.102 124.35 175.199 120.302 174.363 116.244C174.165 115.29 173.817 114.471 174.978 113.698C176.125 112.936 176.614 113.811 177.249 114.246C185.098 119.647 192.35 125.754 199.132 132.428C199.996 133.279 200.086 133.916 199.569 134.983C196.288 141.732 192.218 147.895 187.33 153.455ZM229.559 146.627C226.298 153.694 213.255 156.422 193.525 154.26C203.028 142.649 209.115 129.287 211.544 114.096C226.298 127.738 232.849 139.504 229.559 146.627Z" fill="#002A4A"/>
</svg>
