<svg width="147" height="173" viewBox="0 0 147 173" fill="none" xmlns="http://www.w3.org/2000/svg">
<path d="M74.5154 0.0485128C96.0065 12.7103 118.71 22.5584 142.676 29.3501C146.46 30.4174 146.945 31.0966 146.945 35.0261C146.945 47.979 147.139 60.9319 146.799 73.8848C146.12 101.003 136.66 124.629 118.128 144.519C108.862 154.464 98.2381 162.614 85.9644 168.484C83.0051 169.891 79.8518 171.007 76.6985 171.929C72.9145 173.093 69.2761 171.88 65.7346 170.522C55.5955 166.592 46.6207 160.674 38.3735 153.688C25.4691 142.773 15.427 129.626 8.73228 114.005C4.07506 103.138 0.92174 91.8344 0.485126 80.0459C-0.0485127 64.5703 0.0970253 49.0948 0 33.6193C0 31.3392 0.873228 30.3204 3.29886 29.5927C14.0687 26.5364 24.6929 22.9465 35.0746 18.7259C47.0088 13.8261 58.5548 8.10161 69.7127 1.60092C70.6344 1.06728 71.5561 0.533639 72.4294 0C73.2056 0.0485126 73.8362 0.0485128 74.5154 0.0485128ZM140.056 57.9726C139.959 57.9726 139.91 57.9726 139.813 57.9726C139.813 51.2294 139.765 44.4861 139.862 37.7914C139.862 36.53 139.571 35.9479 138.31 35.5598C116.042 29.1076 94.9392 20.0842 74.855 8.58674C73.9333 8.0531 73.2056 7.95607 72.2353 8.53823C52.1511 20.1327 30.9996 29.1561 8.73228 35.6083C7.51946 35.9479 7.22838 36.4815 7.22838 37.6943C7.2769 48.4156 7.22838 59.1369 7.2769 69.8582C7.32541 82.2774 9.16889 94.4056 13.4865 106.146C18.6774 120.214 26.682 132.488 37.3547 142.918C46.2325 151.602 56.2262 158.733 67.7722 163.633C71.3621 165.137 74.855 165.671 78.4935 163.973C80.0459 163.245 81.6953 162.663 83.2477 161.887C102.216 152.33 117.012 138.358 127.394 119.826C134.186 107.747 138.164 94.7452 139.231 80.9191C139.716 73.2541 139.765 65.5891 140.056 57.9726Z" fill="white"/>
</svg>
