<svg width="159" height="178" viewBox="0 0 159 178" fill="none" xmlns="http://www.w3.org/2000/svg">
<g clip-path="url(#clip0_1_124)">
<path d="M144.119 60.3938C148.253 62.9138 153.23 62.5358 156.9 59.4698C158.924 57.7898 159.852 55.4798 160.654 53.0858V49.5998C159.894 47.3738 159.051 45.1898 157.237 43.5518C153.441 40.1498 148.21 39.6458 143.866 42.5018C143.064 43.0058 142.516 43.0478 141.715 42.6278C135.683 39.6878 129.609 36.7898 123.577 33.8498C123.071 33.5978 122.481 32.9678 122.396 32.4218C119.908 19.8218 109.658 10.4558 97.6788 8.73383C93.8404 8.98583 93.5452 13.8158 98.1006 14.2358C106.326 15.9158 113.243 21.7958 116.154 30.1118C119.444 39.4778 116.238 49.8938 109.911 55.2698C108.308 57.3278 106.03 58.9238 103.5 59.6378C103.12 60.0158 102.403 60.2678 101.138 60.6878C95.2324 62.6618 89.4115 62.4518 83.6329 60.0998C83.5063 60.0578 83.3798 59.9738 83.2533 59.9318C80.5959 59.1338 76.8841 55.3958 76.8841 55.5218C71.485 51.6158 67.3514 41.9978 69.4182 32.9678C71.5272 23.6438 79.921 15.5378 87.3447 14.4878C91.5205 13.8998 90.8457 8.60783 85.6575 9.40583C73.3831 12.6398 64.6097 23.0978 63.5552 35.7398C63.513 36.2438 63.2599 36.8738 62.8803 37.2098C57.8187 41.5778 52.7149 45.9038 47.6955 50.1878C45.5865 48.9278 43.6462 47.4158 41.4529 46.4918C38.5425 45.3158 35.5055 44.5178 32.4685 43.7198C31.4984 43.4678 31.0344 43.2158 31.0766 42.1238C31.161 38.3438 31.1188 34.5638 31.0766 30.7838C31.0766 30.0698 31.1188 29.5658 31.9624 29.2298C36.6865 27.3818 39.4282 23.2658 39.1752 18.6878C38.8799 13.8158 35.7586 10.0778 30.7392 8.69183C30.4861 8.60783 30.2752 8.52383 30.0221 8.39783H26.8586C26.7321 8.48183 26.6055 8.56583 26.4368 8.60783C21.2908 9.57383 18.0852 13.9418 17.6634 18.1418C17.1994 23.0978 20.3207 27.8858 24.8761 29.3138C25.2136 29.4398 25.6354 29.9438 25.6354 30.2798C25.6776 34.6478 25.6776 38.9738 25.6776 43.4678C17.579 44.3918 10.8724 47.8358 5.68424 53.9678C0.4961 60.0578 -1.86598 67.2818 -1.14892 75.3458C-0.516219 82.3598 2.56292 88.7018 7.20272 93.4898C7.20272 93.4898 7.83542 93.9518 7.8776 93.9518C12.1378 95.2958 13.0657 90.9278 10.4928 89.0378C5.93732 84.4598 2.6051 75.7238 4.84064 67.0718C7.54016 56.6558 16.6089 49.1798 27.1117 48.7178C38.0363 48.2138 47.7377 54.6818 51.3652 65.0558C54.6974 74.4638 51.4917 84.8798 44.7007 90.6338C44.7007 90.4658 43.9415 91.2638 43.5197 91.7258C42.3808 92.9858 38.0363 95.0858 36.7287 95.5478C31.5828 97.3118 26.4368 97.4378 21.3752 95.9258C17.7899 94.6238 15.47 98.6138 18.5491 100.84C20.3629 101.47 22.3032 101.932 24.2434 102.226C30.9922 103.108 37.3614 101.974 43.2244 98.4878C51.0277 93.9098 55.7941 87.0638 57.6922 78.0758C61.404 80.9738 64.9471 83.7458 68.5746 86.4758C69.5448 87.1898 69.6713 87.7778 69.376 88.9538C68.2794 92.9858 69.3339 96.5978 72.3708 99.4958C74.9016 101.932 78.5713 102.94 81.9879 102.184C86.6277 101.134 89.4959 98.1518 90.2973 93.5738C91.0987 89.2058 89.5381 85.5518 85.9106 82.9898C82.1988 80.4278 78.2338 80.3018 74.3111 82.5278C73.3831 83.0738 72.7926 83.0318 71.9912 82.3598C67.731 78.9998 63.4287 75.7238 59.1685 72.3218C58.578 71.8598 58.1983 71.0198 57.9874 70.2638C57.3547 67.7858 57.1438 65.1398 56.2159 62.7878C55.0348 59.7638 53.2633 56.9078 51.6604 53.7998C55.541 50.4818 59.6746 46.9958 63.9348 43.3838C68.1528 63.2078 90.0021 74.0438 108.814 63.1658C112.779 68.4578 116.786 73.7498 120.836 79.1258C120.287 79.2938 119.95 79.4198 119.57 79.5458C112.653 81.7718 107.127 85.8458 103.204 91.9778C98.4802 99.4538 97.4258 107.476 99.7035 116.002C99.83 116.548 99.8722 117.514 99.5347 117.766C96.2025 120.37 92.7438 122.89 89.285 125.452C88.9476 124.948 88.6945 124.57 88.4414 124.15C80.1741 110.92 61.9524 106.468 48.5391 114.49C40.314 119.404 35.4211 126.586 34.0292 136.078C33.9027 137.044 33.523 137.38 32.5107 137.38C28.7145 137.338 24.9183 137.338 21.1221 137.38C20.1942 137.38 19.7724 137.128 19.4349 136.204C18.6335 133.894 17.0728 132.13 14.9638 130.87C9.39608 127.594 2.68946 129.568 -0.263139 135.28C-3.00484 140.614 -0.5584 147.334 5.05154 149.812C10.6615 152.29 17.1994 149.56 19.4349 143.722C19.7302 142.924 20.1098 142.714 20.9112 142.714C24.7918 142.756 28.7145 142.756 32.5951 142.714C33.5652 142.714 33.8605 143.092 33.987 143.974C34.1557 145.15 34.3666 146.368 34.6619 147.502C37.4458 158.212 46.8519 167.956 60.1808 169.426C71.2741 170.644 82.3253 165.604 88.4836 155.524C90.1708 152.794 91.2675 149.728 92.6594 146.746C95.3589 148.048 98.2693 149.434 101.138 150.82C104.048 152.206 107.001 153.634 109.911 155.02C109.742 155.65 109.616 156.112 109.531 156.532C107.971 163.546 114.045 170.224 121.131 169.384C125.771 168.838 129.356 165.73 130.495 161.236C131.549 157.036 129.82 152.458 126.15 149.896C122.607 147.418 117.757 147.418 113.96 149.854C113.496 150.148 112.653 150.274 112.189 150.064C106.073 147.208 100.041 144.31 93.967 141.328C93.5452 141.118 93.1656 140.446 93.0812 139.942C92.8281 138.136 93.1234 136.12 92.4063 134.524C90.8035 130.828 92.6594 129.106 95.4433 127.342C97.8054 125.872 99.9987 124.024 102.276 122.302C102.53 122.68 102.698 122.89 102.825 123.1C108.857 133.012 120.878 139.018 133.405 136.792C149.687 133.936 160.864 117.346 157.068 101.386C153.778 87.4838 142.305 78.3698 127.838 78.1178C127.247 78.1178 126.446 77.6978 126.066 77.1938C121.848 71.6918 117.672 66.1478 113.496 60.6038C113.285 60.3098 113.117 60.0158 112.948 59.7218C119.486 52.6658 120.625 50.3138 122.692 39.4358C128.302 42.1238 133.869 44.8118 139.437 47.4998C139.353 47.9198 139.268 48.2138 139.184 48.5498C138.298 53.2118 140.196 58.0418 144.119 60.3938ZM149.898 46.0298C153.146 46.0298 155.719 48.8858 155.212 52.1618C154.833 54.5978 152.766 56.5298 150.319 56.6978C147.114 56.9498 144.499 54.4298 144.541 51.2798C144.541 48.3398 146.945 46.0298 149.898 46.0298ZM23.0624 19.1078C23.0624 16.1258 25.5088 13.6898 28.5036 13.7318C31.414 13.7738 33.8183 16.2098 33.8183 19.1078C33.8183 22.0898 31.3719 24.4418 28.3349 24.4418C25.3823 24.3998 23.0624 22.0478 23.0624 19.1078ZM79.6258 86.3498C82.6206 86.3078 85.067 88.7438 85.067 91.7258C85.067 94.6238 82.6627 97.0178 79.7523 97.0598C76.7575 97.1018 74.3111 94.6658 74.3111 91.6838C74.3111 88.7438 76.7154 86.3498 79.6258 86.3498ZM9.52262 145.402C6.52784 145.402 4.0814 142.966 4.12358 139.984C4.16576 137.086 6.6122 134.692 9.52262 134.692C12.5174 134.692 14.8795 137.128 14.8795 140.152C14.8373 143.092 12.4752 145.402 9.52262 145.402ZM80.1741 157.456C78.5291 159.64 76.1248 161.278 73.5097 161.95C73.1722 162.202 72.7083 162.412 72.2021 162.58C66.0438 164.722 59.9699 164.68 53.9382 162.16C53.4742 161.992 53.1789 161.782 52.968 161.446C50.6903 160.648 48.75 159.136 47.3581 157.204C47.3581 157.33 47.3581 157.456 47.3581 157.582C42.7183 155.65 38.3737 144.646 39.3861 137.464C40.9889 125.956 49.4671 117.346 60.3917 116.044C71.7381 114.7 82.03 120.832 86.2059 131.374C89.8333 140.74 86.9651 151.45 80.1741 157.456ZM120.203 153.55C122.818 153.55 125.096 155.482 125.518 158.044C126.066 161.32 123.409 164.26 120.203 164.26C117.25 164.26 114.804 161.74 114.846 158.8C114.846 155.86 117.25 153.55 120.203 153.55ZM126.488 83.6618C137.159 82.9898 146.987 89.0798 150.826 98.7398C154.495 107.98 152.091 119.026 145.131 125.074C143.275 127.846 140.154 129.862 136.822 130.366C136.695 130.408 136.569 130.45 136.4 130.492C130.453 132.466 124.547 132.34 118.727 129.946C118.305 129.778 118.01 129.568 117.799 129.358C115.437 128.644 113.412 127.216 111.936 125.284C111.936 125.326 111.936 125.326 111.936 125.368C106.494 121.294 102.15 111.424 104.723 101.68C107.422 91.7678 116.322 84.3338 126.488 83.6618Z" fill="white"/>
</g>
<defs>
<clipPath id="clip0_1_124">
<rect width="159" height="178" fill="white"/>
</clipPath>
</defs>
</svg>
