<svg width="19" height="26" viewBox="0 0 19 26" fill="none" xmlns="http://www.w3.org/2000/svg">
<path d="M9.57422 0C13.7643 0.0487215 17.4671 2.87457 18.6364 6.86973C19.8057 10.9623 18.1005 15.4447 14.3002 17.5397C12.9847 18.2706 12.4975 19.0988 12.6437 20.5118C12.6437 20.6579 12.6437 20.8041 12.6437 20.9502C12.595 23.8248 11.5231 25.2865 9.52549 25.2865C7.47919 25.2865 6.26115 23.8248 6.35859 20.999C6.40732 19.2937 5.9201 18.2706 4.36102 17.3449C0.706904 15.2011 -0.803465 10.7187 0.414572 6.72357C1.63261 2.72841 5.38417 0 9.57422 0ZM9.52549 6.33379C7.86896 6.33379 6.45604 7.64928 6.40732 9.35453C6.3586 11.1572 7.7228 12.6189 9.47677 12.6189C11.1333 12.6189 12.5462 11.3034 12.5949 9.59814C12.6437 7.84417 11.2795 6.38252 9.52549 6.33379Z" fill="white"/>
</svg>
