<svg width="49" height="61" viewBox="0 0 49 61" fill="none" xmlns="http://www.w3.org/2000/svg">
<path d="M8.51599 20.6829C8.51599 18.6877 8.37 16.5952 8.51599 14.5027C9.05128 7.30058 14.5502 1.2664 21.4603 0.19582C28.9057 -0.923424 36.0105 2.82361 38.6383 9.68506C39.5629 12.1669 39.6115 14.9893 39.9521 17.7144C40.0981 18.7363 39.9521 19.7583 39.9521 20.8288C41.0227 20.9748 41.85 21.0235 42.6773 21.2181C45.6944 21.8508 48.2248 24.4785 48.2735 27.7876C48.4195 36.5956 48.4195 45.4522 48.2735 54.2602C48.2248 57.9585 45.3537 60.5863 41.6067 60.8783C38.8816 61.073 36.1565 60.9756 33.4313 60.9756C25.2073 60.9756 17.032 60.9756 8.80796 60.9756C2.72512 60.9756 0 58.2019 0 52.0704C0 45.1116 0 38.2015 0 31.2427C0 23.8946 1.11925 22.4347 8.51599 20.6829ZM24.1367 54.6981C29.3437 54.6981 34.5019 54.6495 39.7088 54.6981C41.3634 54.6981 42.0933 54.2115 42.0933 52.411C42.0447 44.7709 42.0447 37.1309 42.0933 29.4908C42.0933 27.8363 41.558 27.301 39.9035 27.301C29.441 27.3497 19.0271 27.3497 8.56465 27.301C6.76413 27.301 6.2775 27.9823 6.2775 29.6368C6.32616 37.2282 6.32616 44.7709 6.2775 52.3623C6.2775 54.0655 6.86145 54.7468 8.56465 54.6981C13.7716 54.6495 18.9785 54.6981 24.1367 54.6981ZM33.5773 20.9262C33.5773 18.785 33.7233 16.7412 33.5287 14.746C33.1394 10.1717 29.5383 6.71663 25.0127 6.37599C20.4384 5.98669 16.156 8.76047 15.1828 13.1401C14.6475 15.6219 14.7935 18.2497 14.5988 20.9262C21.1197 20.9262 27.2512 20.9262 33.5773 20.9262Z" fill="white"/>
</svg>
