<svg width="70" height="70" viewBox="0 0 70 70" fill="none" xmlns="http://www.w3.org/2000/svg">
<path d="M35 40.3846C37.9738 40.3846 40.3846 37.9738 40.3846 35C40.3846 32.0261 37.9738 29.6154 35 29.6154C32.0262 29.6154 29.6154 32.0261 29.6154 35C29.6154 37.9738 32.0262 40.3846 35 40.3846Z" fill="#171A1F"/>
<path d="M13.4616 40.3846C16.4354 40.3846 18.8462 37.9738 18.8462 35C18.8462 32.0261 16.4354 29.6154 13.4616 29.6154C10.4877 29.6154 8.07693 32.0261 8.07693 35C8.07693 37.9738 10.4877 40.3846 13.4616 40.3846Z" fill="#171A1F"/>
<path d="M56.5385 40.3846C59.5123 40.3846 61.9231 37.9738 61.9231 35C61.9231 32.0261 59.5123 29.6154 56.5385 29.6154C53.5646 29.6154 51.1538 32.0261 51.1538 35C51.1538 37.9738 53.5646 40.3846 56.5385 40.3846Z" fill="#171A1F"/>
</svg>
